<mxfile host="app.diagrams.net" modified="2024-06-10T07:00:03.504Z" agent="Mozilla/5.0 (Windows NT 10.0; Win64; x64) AppleWebKit/537.36 (KHTML, like Gecko) Chrome/125.0.0.0 Safari/537.36" etag="0aNtajYk_vBOikr70BZh" version="24.2.0" type="device">
  <diagram name="Page-1" id="PUNLPNNVmvYJWMldxF0U">
    <mxGraphModel dx="1221" dy="806" grid="1" gridSize="10" guides="1" tooltips="1" connect="1" arrows="1" fold="1" page="1" pageScale="1" pageWidth="827" pageHeight="1169" math="0" shadow="0">
      <root>
        <mxCell id="0" />
        <mxCell id="1" parent="0" />
        <mxCell id="JvM0DWIFPYaBuGclPV0d-3" style="edgeStyle=orthogonalEdgeStyle;rounded=0;orthogonalLoop=1;jettySize=auto;html=1;entryX=0;entryY=0.5;entryDx=0;entryDy=0;" edge="1" parent="1" source="JvM0DWIFPYaBuGclPV0d-1" target="JvM0DWIFPYaBuGclPV0d-2">
          <mxGeometry relative="1" as="geometry" />
        </mxCell>
        <mxCell id="JvM0DWIFPYaBuGclPV0d-1" value="&lt;h1&gt;&lt;font size=&quot;1&quot;&gt;PREPROCESSING&lt;/font&gt;&lt;/h1&gt;&lt;div&gt;&lt;ul&gt;&lt;li style=&quot;text-align: left;&quot;&gt;&lt;font size=&quot;1&quot;&gt;Text Cleaning&lt;/font&gt;&lt;/li&gt;&lt;li style=&quot;text-align: left;&quot;&gt;&lt;font size=&quot;1&quot;&gt;Lowercase&lt;/font&gt;&lt;/li&gt;&lt;li style=&quot;text-align: left;&quot;&gt;&lt;font size=&quot;1&quot;&gt;Punctuation Removal&lt;/font&gt;&lt;/li&gt;&lt;li style=&quot;text-align: left;&quot;&gt;&lt;font size=&quot;1&quot;&gt;StopWord Removal&lt;/font&gt;&lt;/li&gt;&lt;/ul&gt;&lt;/div&gt;&lt;div&gt;&lt;font size=&quot;1&quot;&gt;&lt;br&gt;&lt;/font&gt;&lt;/div&gt;" style="rounded=0;whiteSpace=wrap;html=1;" vertex="1" parent="1">
          <mxGeometry x="160" y="145" width="130" height="140" as="geometry" />
        </mxCell>
        <mxCell id="JvM0DWIFPYaBuGclPV0d-5" style="edgeStyle=orthogonalEdgeStyle;rounded=0;orthogonalLoop=1;jettySize=auto;html=1;" edge="1" parent="1" source="JvM0DWIFPYaBuGclPV0d-2" target="JvM0DWIFPYaBuGclPV0d-4">
          <mxGeometry relative="1" as="geometry" />
        </mxCell>
        <mxCell id="JvM0DWIFPYaBuGclPV0d-2" value="&lt;h1&gt;Feature Engineering&lt;/h1&gt;&lt;div&gt;TF-IDF Vectorizer(max_features = 5000)&lt;/div&gt;" style="rounded=0;whiteSpace=wrap;html=1;" vertex="1" parent="1">
          <mxGeometry x="440" y="160" width="280" height="110" as="geometry" />
        </mxCell>
        <mxCell id="JvM0DWIFPYaBuGclPV0d-7" style="edgeStyle=orthogonalEdgeStyle;rounded=0;orthogonalLoop=1;jettySize=auto;html=1;" edge="1" parent="1" source="JvM0DWIFPYaBuGclPV0d-4" target="JvM0DWIFPYaBuGclPV0d-6">
          <mxGeometry relative="1" as="geometry" />
        </mxCell>
        <mxCell id="JvM0DWIFPYaBuGclPV0d-4" value="&lt;h1&gt;Model&lt;/h1&gt;&lt;div&gt;SVM (using Linear Kernel)&lt;/div&gt;" style="rounded=0;whiteSpace=wrap;html=1;" vertex="1" parent="1">
          <mxGeometry x="515" y="370" width="130" height="110" as="geometry" />
        </mxCell>
        <mxCell id="JvM0DWIFPYaBuGclPV0d-6" value="&lt;h1&gt;Evaluation&lt;/h1&gt;&lt;div&gt;Accuracy&lt;/div&gt;&lt;div&gt;Precision&lt;/div&gt;&lt;div&gt;Recall&lt;/div&gt;&lt;div&gt;F1 Score&lt;/div&gt;" style="rounded=0;whiteSpace=wrap;html=1;" vertex="1" parent="1">
          <mxGeometry x="520" y="550" width="120" height="155" as="geometry" />
        </mxCell>
      </root>
    </mxGraphModel>
  </diagram>
</mxfile>
